<svg width="371" xmlns="http://www.w3.org/2000/svg" xmlns:xlink="http://www.w3.org/1999/xlink" height="523" viewBox="0 0 371 523" xmlns:ev="http://www.w3.org/2001/xml-events"><defs/><g transform="translate(5.5,5.5)" id="page1"><rect fill="#ffffff" width="361" x="0" height="513" y="0"/><g transform="translate(180.38,38.80)" id="shape1"><path fill="#ffffff" stroke-width="1" fill-rule="nonzero" d="M7.0,.0L49.7,.0C53.6,.0,56.7,3.1,56.7,7.0L56.7,30.8C56.7,34.7,53.6,37.8,49.7,37.8L7.0,37.8C3.1,37.8,.0,34.7,.0,30.8L.0,7.0C.0,3.1,3.1,.0,7.0,.0z" stroke="#323232"/><text style="fill:#191919;font-family:Microsoft YaHei;font-size:10.00pt" xml:space="preserve"><tspan x="15.3" y="24.4">开始</tspan></text></g><g transform="translate(152.03,95.49)" id="shape2"><path fill="#ffffff" stroke-width="1" fill-rule="nonzero" d="M7.0,.0L106.4,.0C110.3,.0,113.4,3.1,113.4,7.0L113.4,30.8C113.4,34.7,110.3,37.8,106.4,37.8L7.0,37.8C3.1,37.8,.0,34.7,.0,30.8L.0,7.0C.0,3.1,3.1,.0,7.0,.0z" stroke="#323232"/><text style="fill:#191919;font-family:Microsoft YaHei;font-size:10.00pt" xml:space="preserve"><tspan x="10.7" y="24.5">帮我擦掉 / 拒绝</tspan></text></g><g transform="translate(152.03,152.18)" id="shape3"><path fill="#ffffff" stroke-width="1" fill-rule="nonzero" d="M7.0,.0L106.4,.0C110.3,.0,113.4,3.1,113.4,7.0L113.4,30.8C113.4,34.7,110.3,37.8,106.4,37.8L7.0,37.8C3.1,37.8,.0,34.7,.0,30.8L.0,7.0C.0,3.1,3.1,.0,7.0,.0z" stroke="#323232"/><text style="fill:#191919;font-family:Microsoft YaHei;font-size:10.00pt" xml:space="preserve"><tspan x="17.2" y="24.4">车站 / 游乐园</tspan></text></g><g transform="translate(170.93,208.87)" id="shape4"><path fill="#ffffff" stroke-width="1" fill-rule="nonzero" d="M7.0,.0L68.6,.0C72.5,.0,75.6,3.1,75.6,7.0L75.6,30.8C75.6,34.7,72.5,37.8,68.6,37.8L7.0,37.8C3.1,37.8,.0,34.7,.0,30.8L.0,7.0C.0,3.1,3.1,.0,7.0,.0z" stroke="#323232"/><text style="fill:#191919;font-family:Microsoft YaHei;font-size:10.00pt" xml:space="preserve"><tspan x="17.8" y="24.5">中 / 外</tspan></text></g><g transform="translate(95.34,265.57)" id="shape5"><path fill="#ffffff" stroke-width="1" fill-rule="nonzero" d="M7.0,.0L49.7,.0C53.6,.0,56.7,3.1,56.7,7.0L56.7,30.8C56.7,34.7,53.6,37.8,49.7,37.8L7.0,37.8C3.1,37.8,.0,34.7,.0,30.8L.0,7.0C.0,3.1,3.1,.0,7.0,.0z" stroke="#323232"/><text style="fill:#191919;font-family:Microsoft YaHei;font-size:10.00pt" xml:space="preserve"><tspan x="15.3" y="24.4">说服</tspan></text></g><g transform="translate(265.42,265.57)" id="shape6"><path fill="#ffffff" stroke-width="1" fill-rule="nonzero" d="M7.0,.0L49.7,.0C53.6,.0,56.7,3.1,56.7,7.0L56.7,30.8C56.7,34.7,53.6,37.8,49.7,37.8L7.0,37.8C3.1,37.8,.0,34.7,.0,30.8L.0,7.0C.0,3.1,3.1,.0,7.0,.0z" stroke="#323232"/><text style="fill:#191919;font-family:Microsoft YaHei;font-size:10.00pt" xml:space="preserve"><tspan x="15.3" y="24.5">期待</tspan></text></g><g transform="translate(114.24,378.95)" id="shape7"><path fill="#ffffff" stroke-width="1" fill-rule="nonzero" d="M7.0,.0L49.7,.0C53.6,.0,56.7,3.1,56.7,7.0L56.7,30.8C56.7,34.7,53.6,37.8,49.7,37.8L7.0,37.8C3.1,37.8,.0,34.7,.0,30.8L.0,7.0C.0,3.1,3.1,.0,7.0,.0z" stroke="#323232"/><text style="fill:#191919;font-family:Microsoft YaHei;font-size:10.00pt" xml:space="preserve"><tspan x="15.3" y="24.5">担心</tspan></text></g><g transform="translate(189.83,378.95)" id="shape8"><path fill="#ffffff" stroke-width="1" fill-rule="nonzero" d="M7.0,.0L49.7,.0C53.6,.0,56.7,3.1,56.7,7.0L56.7,30.8C56.7,34.7,53.6,37.8,49.7,37.8L7.0,37.8C3.1,37.8,.0,34.7,.0,30.8L.0,7.0C.0,3.1,3.1,.0,7.0,.0z" stroke="#323232"/><text style="fill:#191919;font-family:Microsoft YaHei;font-size:10.00pt" xml:space="preserve"><tspan x="17.3" y="24.5">……</tspan></text></g><g transform="translate(38.65,322.26)" id="shape9"><path fill="#ffffff" stroke-width="1" fill-rule="nonzero" d="M7.0,.0L49.7,.0C53.6,.0,56.7,3.1,56.7,7.0L56.7,30.8C56.7,34.7,53.6,37.8,49.7,37.8L7.0,37.8C3.1,37.8,.0,34.7,.0,30.8L.0,7.0C.0,3.1,3.1,.0,7.0,.0z" stroke="#323232"/><text style="fill:#191919;font-family:Microsoft YaHei;font-size:10.00pt" xml:space="preserve"><tspan x="15.3" y="24.5">回应</tspan></text></g><g transform="translate(152.03,322.26)" id="shape10"><path fill="#ffffff" stroke-width="1" fill-rule="nonzero" d="M7.0,.0L49.7,.0C53.6,.0,56.7,3.1,56.7,7.0L56.7,30.8C56.7,34.7,53.6,37.8,49.7,37.8L7.0,37.8C3.1,37.8,.0,34.7,.0,30.8L.0,7.0C.0,3.1,3.1,.0,7.0,.0z" stroke="#323232"/><text style="fill:#191919;font-family:Microsoft YaHei;font-size:10.00pt" xml:space="preserve"><tspan x="15.3" y="24.5">拒绝</tspan></text></g><g transform="translate(38.65,378.95)" id="shape11"><path fill="#ffffff" stroke-width="1" fill-rule="nonzero" d="M7.0,.0L49.7,.0C53.6,.0,56.7,3.1,56.7,7.0L56.7,30.8C56.7,34.7,53.6,37.8,49.7,37.8L7.0,37.8C3.1,37.8,.0,34.7,.0,30.8L.0,7.0C.0,3.1,3.1,.0,7.0,.0z" stroke="#323232"/><text style="fill:#191919;font-family:Microsoft YaHei;font-size:10.00pt" xml:space="preserve"><tspan x="8.3" y="24.4">中 / 颜</tspan></text></g><g transform="translate(208.88,76.80)" id="shape12"><path fill="none" stroke="#191919" d="M.0,.0L.1,12.7"/><path fill="#191919" stroke-width="1" stroke-linecap="round" stroke="#191919" d="M3.1,12.7L.2,18.7L-2.9,12.7L3.1,12.7"/></g><g transform="translate(209.03,133.49)" id="shape13"><path fill="none" stroke="#191919" d="M.0,.0L.0,12.7"/><path fill="#191919" stroke-width="1" stroke-linecap="round" stroke="#191919" d="M3.0,12.7L.0,18.7L-3.0,12.7L3.0,12.7"/></g><g transform="translate(209.03,190.18)" id="shape14"><path fill="none" stroke="#191919" d="M.0,.0L-0.1,12.7"/><path fill="#191919" stroke-width="1" stroke-linecap="round" stroke="#191919" d="M2.9,12.7L-0.1,18.7L-3.1,12.7L2.9,12.7"/></g><g transform="translate(208.93,246.87)" id="shape15"><path fill="none" stroke="#191919" d="M.0,.0L-79.2,17.4"/><path fill="#191919" stroke-width="1" stroke-linecap="round" stroke="#191919" d="M-78.6,20.3L-85.1,18.7L-79.9,14.5L-78.6,20.3"/></g><g transform="translate(209.03,246.67)" id="shape16"><path fill="none" stroke="#191919" d="M.0,.0L79.0,17.6"/><path fill="#191919" stroke-width="1" stroke-linecap="round" stroke="#191919" d="M79.7,14.7L84.9,18.9L78.4,20.5L79.7,14.7"/></g><g transform="translate(123.84,303.57)" id="shape17"><path fill="none" stroke="#191919" d="M.0,.0L-51.0,16.8"/><path fill="#191919" stroke-width="1" stroke-linecap="round" stroke="#191919" d="M-50.1,19.7L-56.7,18.7L-51.9,14.0L-50.1,19.7"/></g><g transform="translate(123.26,303.36)" id="shape18"><path fill="none" stroke="#191919" d="M.0,.0L51.6,17.0"/><path fill="#191919" stroke-width="1" stroke-linecap="round" stroke="#191919" d="M52.5,14.2L57.3,18.9L50.6,19.9L52.5,14.2"/></g><g transform="translate(67.15,360.26)" id="shape19"><path fill="none" stroke="#191919" d="M.0,.0L.0,12.7"/><path fill="#191919" stroke-width="1" stroke-linecap="round" stroke="#191919" d="M3.0,12.7L.0,18.7L-3.0,12.7L3.0,12.7"/></g><g transform="translate(38.65,435.65)" id="shape20"><path fill="#ffffff" stroke-width="1" fill-rule="nonzero" d="M7.0,.0L49.7,.0C53.6,.0,56.7,3.1,56.7,7.0L56.7,30.8C56.7,34.7,53.6,37.8,49.7,37.8L7.0,37.8C3.1,37.8,.0,34.7,.0,30.8L.0,7.0C.0,3.1,3.1,.0,7.0,.0z" stroke="#323232"/><text style="fill:#191919;font-family:Microsoft YaHei;font-size:10.00pt" xml:space="preserve"><tspan x="10.3" y="24.5">END1</tspan></text></g><g transform="translate(265.42,435.65)" id="shape21"><path fill="#ffffff" stroke-width="1" fill-rule="nonzero" d="M7.0,.0L49.7,.0C53.6,.0,56.7,3.1,56.7,7.0L56.7,30.8C56.7,34.7,53.6,37.8,49.7,37.8L7.0,37.8C3.1,37.8,.0,34.7,.0,30.8L.0,7.0C.0,3.1,3.1,.0,7.0,.0z" stroke="#323232"/><text style="fill:#191919;font-family:Microsoft YaHei;font-size:10.00pt" xml:space="preserve"><tspan x="10.3" y="24.5">END4</tspan></text></g><g transform="translate(67.15,416.95)" id="shape22"><path fill="none" stroke="#191919" d="M.0,.0L.0,12.7"/><path fill="#191919" stroke-width="1" stroke-linecap="round" stroke="#191919" d="M3.0,12.7L.0,18.7L-3.0,12.7L3.0,12.7"/></g><g transform="translate(114.24,435.65)" id="shape23"><path fill="#ffffff" stroke-width="1" fill-rule="nonzero" d="M7.0,.0L49.7,.0C53.6,.0,56.7,3.1,56.7,7.0L56.7,30.8C56.7,34.7,53.6,37.8,49.7,37.8L7.0,37.8C3.1,37.8,.0,34.7,.0,30.8L.0,7.0C.0,3.1,3.1,.0,7.0,.0z" stroke="#323232"/><text style="fill:#191919;font-family:Microsoft YaHei;font-size:10.00pt" xml:space="preserve"><tspan x="10.3" y="24.5">END2</tspan></text></g><g transform="translate(180.53,360.26)" id="shape24"><path fill="none" stroke="#191919" d="M.0,.0L-32.4,16.0"/><path fill="#191919" stroke-width="1" stroke-linecap="round" stroke="#191919" d="M-31.1,18.7L-37.8,18.7L-33.7,13.3L-31.1,18.7"/></g><g transform="translate(180.38,360.05)" id="shape25"><path fill="none" stroke="#191919" d="M.0,.0L32.6,16.2"/><path fill="#191919" stroke-width="1" stroke-linecap="round" stroke="#191919" d="M33.9,13.5L37.9,18.9L31.2,18.9L33.9,13.5"/></g><g transform="translate(142.74,416.95)" id="shape26"><path fill="none" stroke="#191919" d="M.0,.0L.0,12.7"/><path fill="#191919" stroke-width="1" stroke-linecap="round" stroke="#191919" d="M3.0,12.7L.0,18.7L-3.0,12.7L3.0,12.7"/></g><g transform="translate(189.83,435.65)" id="shape27"><path fill="#ffffff" stroke-width="1" fill-rule="nonzero" d="M7.0,.0L49.7,.0C53.6,.0,56.7,3.1,56.7,7.0L56.7,30.8C56.7,34.7,53.6,37.8,49.7,37.8L7.0,37.8C3.1,37.8,.0,34.7,.0,30.8L.0,7.0C.0,3.1,3.1,.0,7.0,.0z" stroke="#323232"/><text style="fill:#191919;font-family:Microsoft YaHei;font-size:10.00pt" xml:space="preserve"><tspan x="10.3" y="24.5">END3</tspan></text></g><g transform="translate(218.33,416.95)" id="shape28"><path fill="none" stroke="#191919" d="M.0,.0L.0,12.7"/><path fill="#191919" stroke-width="1" stroke-linecap="round" stroke="#191919" d="M3.0,12.7L.0,18.7L-3.0,12.7L3.0,12.7"/></g><g transform="translate(293.92,303.57)" id="shape29"><path fill="none" stroke="#191919" d="M.0,.0L.0,126.1"/><path fill="#191919" stroke-width="1" stroke-linecap="round" stroke="#191919" d="M3.0,126.1L.0,132.1L-3.0,126.1L3.0,126.1"/></g></g></svg>