<svg width="561" xmlns="http://www.w3.org/2000/svg" xmlns:xlink="http://www.w3.org/1999/xlink" height="655" viewBox="0 0 561 655" xmlns:ev="http://www.w3.org/2001/xml-events"><defs/><g transform="translate(5.5,5.5)" id="page1"><rect fill="#ffffff" width="551" x="0" height="645" y="0"/><g transform="translate(90.84,38.59)" id="shape1"><path fill="#ffffff" stroke-width="1" fill-rule="nonzero" d="M7.0,.0L49.7,.0C53.6,.0,56.7,3.1,56.7,7.0L56.7,30.8C56.7,34.7,53.6,37.8,49.7,37.8L7.0,37.8C3.1,37.8,.0,34.7,.0,30.8L.0,7.0C.0,3.1,3.1,.0,7.0,.0z" stroke="#323232"/><text style="fill:#191919;font-family:Microsoft YaHei;font-size:10.00pt" xml:space="preserve"><tspan x="15.3" y="24.4">开始</tspan></text></g><g transform="translate(175.88,38.59)" id="shape2"><path fill="#ffffff" stroke-width="1" fill-rule="nonzero" d="M7.0,.0L87.5,.0C91.4,.0,94.5,3.1,94.5,7.0L94.5,30.8C94.5,34.7,91.4,37.8,87.5,37.8L7.0,37.8C3.1,37.8,.0,34.7,.0,30.8L.0,7.0C.0,3.1,3.1,.0,7.0,.0z" stroke="#323232"/><text style="fill:#191919;font-family:Microsoft YaHei;font-size:10.00pt" xml:space="preserve"><tspan x="14.2" y="24.4">温柔 / 自大</tspan></text></g><g transform="translate(289.27,38.59)" id="shape3"><path fill="#ffffff" stroke-width="1" fill-rule="nonzero" d="M7.0,.0L87.5,.0C91.4,.0,94.5,3.1,94.5,7.0L94.5,30.8C94.5,34.7,91.4,37.8,87.5,37.8L7.0,37.8C3.1,37.8,.0,34.7,.0,30.8L.0,7.0C.0,3.1,3.1,.0,7.0,.0z" stroke="#323232"/><text style="fill:#191919;font-family:Microsoft YaHei;font-size:10.00pt" xml:space="preserve"><tspan x="14.2" y="24.4">温柔 / 自大</tspan></text></g><g transform="translate(402.65,38.59)" id="shape4"><path fill="#ffffff" stroke-width="1" fill-rule="nonzero" d="M7.0,.0L68.6,.0C72.5,.0,75.6,3.1,75.6,7.0L75.6,30.8C75.6,34.7,72.5,37.8,68.6,37.8L7.0,37.8C3.1,37.8,.0,34.7,.0,30.8L.0,7.0C.0,3.1,3.1,.0,7.0,.0z" stroke="#323232"/><text style="fill:#191919;font-family:Microsoft YaHei;font-size:10.00pt" xml:space="preserve"><tspan x="17.8" y="24.5">中 / 颜</tspan></text></g><g transform="translate(152.26,95.28)" id="shape5"><path fill="#ffffff" stroke-width="1" fill-rule="nonzero" d="M7.0,.0L257.6,.0C261.4,.0,264.6,3.1,264.6,7.0L264.6,106.4C264.6,110.3,261.4,113.4,257.6,113.4L7.0,113.4C3.1,113.4,.0,110.3,.0,106.4L.0,7.0C.0,3.1,3.1,.0,7.0,.0z" stroke="#323232"/><text style="fill:#191919;font-family:Microsoft YaHei;font-size:10.00pt" xml:space="preserve"><tspan x="66.3" y="24.2">找亚璃子 &lt;> 找灯露椎</tspan><tspan x="53.3" y="43.2">邀请亚璃子 &lt;> 邀请灯露椎</tspan><tspan x="27.3" y="62.2">和亚璃子打招呼 &lt;> 和灯露椎打招呼</tspan><tspan x="53.3" y="81.2">亚璃子的脸 &lt;> 灯露椎的脸</tspan><tspan x="40.3" y="100.2">请亚璃子帮忙 &lt;> 请灯露椎帮忙</tspan></text></g><g transform="translate(38.87,227.57)" id="shape6"><path fill="#ffffff" stroke-width="3" fill-rule="nonzero" d="M7.0,.0L68.6,.0C72.5,.0,75.6,3.1,75.6,7.0L75.6,30.8C75.6,34.7,72.5,37.8,68.6,37.8L7.0,37.8C3.1,37.8,.0,34.7,.0,30.8L.0,7.0C.0,3.1,3.1,.0,7.0,.0z" stroke="#e19cee"/><text style="fill:#191919;font-family:Microsoft YaHei;font-size:10.00pt" xml:space="preserve"><tspan x="15.8" y="24.5">(*) 喜欢</tspan></text></g><g transform="translate(133.36,227.57)" id="shape7"><path fill="#ffffff" stroke-width="3" fill-rule="nonzero" d="M7.0,.0L106.4,.0C110.3,.0,113.4,3.1,113.4,7.0L113.4,30.8C113.4,34.7,110.3,37.8,106.4,37.8L7.0,37.8C3.1,37.8,.0,34.7,.0,30.8L.0,7.0C.0,3.1,3.1,.0,7.0,.0z" stroke="#f0b0b1"/><text style="fill:#191919;font-family:Microsoft YaHei;font-size:10.00pt" xml:space="preserve"><tspan x="11.2" y="24.4">(亚璃子*5) 拒绝</tspan></text></g><g transform="translate(38.87,284.26)" id="shape8"><path fill="#ffffff" stroke-width="1" fill-rule="nonzero" d="M7.0,.0L68.6,.0C72.5,.0,75.6,3.1,75.6,7.0L75.6,30.8C75.6,34.7,72.5,37.8,68.6,37.8L7.0,37.8C3.1,37.8,.0,34.7,.0,30.8L.0,7.0C.0,3.1,3.1,.0,7.0,.0z" stroke="#323232"/><text style="fill:#191919;font-family:Microsoft YaHei;font-size:10.00pt" xml:space="preserve"><tspan x="17.8" y="24.5">中 / 颜</tspan></text></g><g transform="translate(48.32,340.95)" id="shape9"><path fill="#ffffff" stroke-width="1" fill-rule="nonzero" d="M7.0,.0L49.7,.0C53.6,.0,56.7,3.1,56.7,7.0L56.7,30.8C56.7,34.7,53.6,37.8,49.7,37.8L7.0,37.8C3.1,37.8,.0,34.7,.0,30.8L.0,7.0C.0,3.1,3.1,.0,7.0,.0z" stroke="#323232"/><text style="fill:#191919;font-family:Microsoft YaHei;font-size:10.00pt" xml:space="preserve"><tspan x="10.3" y="24.4">END1</tspan></text></g><g transform="translate(133.36,284.26)" id="shape10"><path fill="#ffffff" stroke-width="1" fill-rule="nonzero" d="M7.0,.0L106.4,.0C110.3,.0,113.4,3.1,113.4,7.0L113.4,30.8C113.4,34.7,110.3,37.8,106.4,37.8L7.0,37.8C3.1,37.8,.0,34.7,.0,30.8L.0,7.0C.0,3.1,3.1,.0,7.0,.0z" stroke="#323232"/><text style="fill:#191919;font-family:Microsoft YaHei;font-size:10.00pt" xml:space="preserve"><tspan x="16.7" y="24.4">挑逗 / 亲 / 揉</tspan></text></g><g transform="translate(397.93,227.57)" id="shape11"><path fill="#ffffff" stroke-width="3" fill-rule="nonzero" d="M7.0,.0L106.4,.0C110.3,.0,113.4,3.1,113.4,7.0L113.4,30.8C113.4,34.7,110.3,37.8,106.4,37.8L7.0,37.8C3.1,37.8,.0,34.7,.0,30.8L.0,7.0C.0,3.1,3.1,.0,7.0,.0z" stroke="#f0b0b1"/><text style="fill:#191919;font-family:Microsoft YaHei;font-size:10.00pt" xml:space="preserve"><tspan x="11.2" y="24.4">(灯露椎*5) 拒绝</tspan></text></g><g transform="translate(265.65,227.57)" id="shape12"><path fill="#ffffff" stroke-width="3" fill-rule="nonzero" d="M7.0,.0L106.4,.0C110.3,.0,113.4,3.1,113.4,7.0L113.4,30.8C113.4,34.7,110.3,37.8,106.4,37.8L7.0,37.8C3.1,37.8,.0,34.7,.0,30.8L.0,7.0C.0,3.1,3.1,.0,7.0,.0z" stroke="#f0b0b1"/><text style="fill:#191919;font-family:Microsoft YaHei;font-size:10.00pt" xml:space="preserve"><tspan x="34.7" y="24.4">(*) 拒绝</tspan></text></g><g transform="translate(152.26,340.95)" id="shape13"><path fill="#ffffff" stroke-width="1" fill-rule="nonzero" d="M7.0,.0L68.6,.0C72.5,.0,75.6,3.1,75.6,7.0L75.6,30.8C75.6,34.7,72.5,37.8,68.6,37.8L7.0,37.8C3.1,37.8,.0,34.7,.0,30.8L.0,7.0C.0,3.1,3.1,.0,7.0,.0z" stroke="#323232"/><text style="fill:#191919;font-family:Microsoft YaHei;font-size:10.00pt" xml:space="preserve"><tspan x="17.8" y="24.5">中 / 外</tspan></text></g><g transform="translate(133.36,397.65)" id="shape14"><path fill="#ffffff" stroke-width="1" fill-rule="nonzero" d="M7.0,.0L106.4,.0C110.3,.0,113.4,3.1,113.4,7.0L113.4,30.8C113.4,34.7,110.3,37.8,106.4,37.8L7.0,37.8C3.1,37.8,.0,34.7,.0,30.8L.0,7.0C.0,3.1,3.1,.0,7.0,.0z" stroke="#323232"/><text style="fill:#191919;font-family:Microsoft YaHei;font-size:10.00pt" xml:space="preserve"><tspan x="23.7" y="24.5">去找 / 感谢</tspan></text></g><g transform="translate(152.26,454.34)" id="shape15"><path fill="#ffffff" stroke-width="1" fill-rule="nonzero" d="M7.0,.0L68.6,.0C72.5,.0,75.6,3.1,75.6,7.0L75.6,30.8C75.6,34.7,72.5,37.8,68.6,37.8L7.0,37.8C3.1,37.8,.0,34.7,.0,30.8L.0,7.0C.0,3.1,3.1,.0,7.0,.0z" stroke="#323232"/><text style="fill:#191919;font-family:Microsoft YaHei;font-size:10.00pt" xml:space="preserve"><tspan x="17.8" y="24.5">中 / 颜</tspan></text></g><g transform="translate(152.26,511.03)" id="shape16"><path fill="#ffffff" stroke-width="1" fill-rule="nonzero" d="M7.0,.0L68.6,.0C72.5,.0,75.6,3.1,75.6,7.0L75.6,30.8C75.6,34.7,72.5,37.8,68.6,37.8L7.0,37.8C3.1,37.8,.0,34.7,.0,30.8L.0,7.0C.0,3.1,3.1,.0,7.0,.0z" stroke="#323232"/><text style="fill:#191919;font-family:Microsoft YaHei;font-size:10.00pt" xml:space="preserve"><tspan x="33.3" y="24.4">...</tspan></text></g><g transform="translate(161.71,567.73)" id="shape17"><path fill="#ffffff" stroke-width="1" fill-rule="nonzero" d="M7.0,.0L49.7,.0C53.6,.0,56.7,3.1,56.7,7.0L56.7,30.8C56.7,34.7,53.6,37.8,49.7,37.8L7.0,37.8C3.1,37.8,.0,34.7,.0,30.8L.0,7.0C.0,3.1,3.1,.0,7.0,.0z" stroke="#323232"/><text style="fill:#191919;font-family:Microsoft YaHei;font-size:10.00pt" xml:space="preserve"><tspan x="10.3" y="24.4">END2</tspan></text></g><g transform="translate(293.99,284.26)" id="shape18"><path fill="#ffffff" stroke-width="1" fill-rule="nonzero" d="M7.0,.0L49.7,.0C53.6,.0,56.7,3.1,56.7,7.0L56.7,30.8C56.7,34.7,53.6,37.8,49.7,37.8L7.0,37.8C3.1,37.8,.0,34.7,.0,30.8L.0,7.0C.0,3.1,3.1,.0,7.0,.0z" stroke="#323232"/><text style="fill:#191919;font-family:Microsoft YaHei;font-size:10.00pt" xml:space="preserve"><tspan x="10.3" y="24.4">END3</tspan></text></g><g transform="translate(416.83,284.26)" id="shape19"><path fill="#ffffff" stroke-width="1" fill-rule="nonzero" d="M7.0,.0L68.6,.0C72.5,.0,75.6,3.1,75.6,7.0L75.6,30.8C75.6,34.7,72.5,37.8,68.6,37.8L7.0,37.8C3.1,37.8,.0,34.7,.0,30.8L.0,7.0C.0,3.1,3.1,.0,7.0,.0z" stroke="#323232"/><text style="fill:#191919;font-family:Microsoft YaHei;font-size:10.00pt" xml:space="preserve"><tspan x="17.8" y="24.5">中 / 颜</tspan></text></g><g transform="translate(397.93,340.95)" id="shape20"><path fill="#ffffff" stroke-width="1" fill-rule="nonzero" d="M7.0,.0L106.4,.0C110.3,.0,113.4,3.1,113.4,7.0L113.4,30.8C113.4,34.7,110.3,37.8,106.4,37.8L7.0,37.8C3.1,37.8,.0,34.7,.0,30.8L.0,7.0C.0,3.1,3.1,.0,7.0,.0z" stroke="#323232"/><text style="fill:#191919;font-family:Microsoft YaHei;font-size:10.00pt" xml:space="preserve"><tspan x="10.7" y="24.4">亚璃子 / 灯露椎</tspan></text></g><g transform="translate(416.83,454.34)" id="shape21"><path fill="#ffffff" stroke-width="1" fill-rule="nonzero" d="M7.0,.0L68.6,.0C72.5,.0,75.6,3.1,75.6,7.0L75.6,30.8C75.6,34.7,72.5,37.8,68.6,37.8L7.0,37.8C3.1,37.8,.0,34.7,.0,30.8L.0,7.0C.0,3.1,3.1,.0,7.0,.0z" stroke="#323232"/><text style="fill:#191919;font-family:Microsoft YaHei;font-size:10.00pt" xml:space="preserve"><tspan x="17.8" y="24.5">中 / 外</tspan></text></g><g transform="translate(416.83,397.65)" id="shape22"><path fill="#ffffff" stroke-width="1" fill-rule="nonzero" d="M7.0,.0L68.6,.0C72.5,.0,75.6,3.1,75.6,7.0L75.6,30.8C75.6,34.7,72.5,37.8,68.6,37.8L7.0,37.8C3.1,37.8,.0,34.7,.0,30.8L.0,7.0C.0,3.1,3.1,.0,7.0,.0z" stroke="#323232"/><text style="fill:#191919;font-family:Microsoft YaHei;font-size:10.00pt" xml:space="preserve"><tspan x="33.3" y="24.4">...</tspan></text></g><g transform="translate(147.47,57.59)" id="shape23"><path fill="none" stroke="#191919" d="M.0,.0L22.4,-0.0"/><path fill="#191919" stroke-width="1" stroke-linecap="round" stroke="#191919" d="M22.4,-3.0L28.4,-0.0L22.4,3.0L22.4,-3.0"/></g><g transform="translate(270.26,57.59)" id="shape24"><path fill="none" stroke="#191919" d="M.0,.0L13.0,.0"/><path fill="#191919" stroke-width="1" stroke-linecap="round" stroke="#191919" d="M13.0,-3.0L19.0,.0L13.0,3.0L13.0,-3.0"/></g><g transform="translate(383.64,57.59)" id="shape25"><path fill="none" stroke="#191919" d="M.0,.0L13.0,.0"/><path fill="#191919" stroke-width="1" stroke-linecap="round" stroke="#191919" d="M13.0,-3.0L19.0,.0L13.0,3.0L13.0,-3.0"/></g><g transform="translate(285.26,209.28)" id="shape26"><path fill="none" stroke="#191919" d="M.0,.0L-202.4,17.8"/><path fill="#191919" stroke-width="1" stroke-linecap="round" stroke="#191919" d="M-202.1,20.7L-208.4,18.3L-202.7,14.8L-202.1,20.7"/></g><g transform="translate(76.87,265.57)" id="shape27"><path fill="none" stroke="#191919" d="M.0,.0L.0,12.7"/><path fill="#191919" stroke-width="1" stroke-linecap="round" stroke="#191919" d="M3.0,12.7L.0,18.7L-3.0,12.7L3.0,12.7"/></g><g transform="translate(76.87,322.26)" id="shape28"><path fill="none" stroke="#191919" d="M.0,.0L-0.0,12.7"/><path fill="#191919" stroke-width="1" stroke-linecap="round" stroke="#191919" d="M3.0,12.7L-0.1,18.7L-3.0,12.7L3.0,12.7"/></g><g transform="translate(285.26,209.28)" id="shape29"><path fill="none" stroke="#191919" d="M.0,.0L-89.0,17.1"/><path fill="#191919" stroke-width="1" stroke-linecap="round" stroke="#191919" d="M-88.4,20.1L-94.9,18.3L-89.6,14.2L-88.4,20.1"/></g><g transform="translate(190.36,265.57)" id="shape30"><path fill="none" stroke="#191919" d="M.0,.0L.0,12.7"/><path fill="#191919" stroke-width="1" stroke-linecap="round" stroke="#191919" d="M3.0,12.7L.0,18.7L-3.0,12.7L3.0,12.7"/></g><g transform="translate(190.36,322.26)" id="shape31"><path fill="none" stroke="#191919" d="M.0,.0L-0.1,12.7"/><path fill="#191919" stroke-width="1" stroke-linecap="round" stroke="#191919" d="M2.9,12.7L-0.1,18.7L-3.1,12.7L2.9,12.7"/></g><g transform="translate(190.26,378.95)" id="shape32"><path fill="none" stroke="#191919" d="M.0,.0L.1,12.7"/><path fill="#191919" stroke-width="1" stroke-linecap="round" stroke="#191919" d="M3.1,12.7L.1,18.7L-2.9,12.7L3.1,12.7"/></g><g transform="translate(190.36,435.65)" id="shape33"><path fill="none" stroke="#191919" d="M.0,.0L-0.1,12.7"/><path fill="#191919" stroke-width="1" stroke-linecap="round" stroke="#191919" d="M2.9,12.7L-0.1,18.7L-3.1,12.7L2.9,12.7"/></g><g transform="translate(190.26,492.34)" id="shape34"><path fill="none" stroke="#191919" d="M.0,.0L.0,12.7"/><path fill="#191919" stroke-width="1" stroke-linecap="round" stroke="#191919" d="M3.0,12.7L.0,18.7L-3.0,12.7L3.0,12.7"/></g><g transform="translate(190.26,549.03)" id="shape35"><path fill="none" stroke="#191919" d="M.0,.0L-0.0,12.7"/><path fill="#191919" stroke-width="1" stroke-linecap="round" stroke="#191919" d="M3.0,12.7L-0.1,18.7L-3.0,12.7L3.0,12.7"/></g><g transform="translate(285.26,209.28)" id="shape36"><path fill="none" stroke="#191919" d="M.0,.0L32.0,15.6"/><path fill="#191919" stroke-width="1" stroke-linecap="round" stroke="#191919" d="M33.3,13.0L37.4,18.3L30.7,18.3L33.3,13.0"/></g><g transform="translate(322.65,265.57)" id="shape37"><path fill="none" stroke="#191919" d="M.0,.0L-0.1,12.7"/><path fill="#191919" stroke-width="1" stroke-linecap="round" stroke="#191919" d="M2.9,12.7L-0.2,18.7L-3.1,12.7L2.9,12.7"/></g><g transform="translate(285.26,209.28)" id="shape38"><path fill="none" stroke="#191919" d="M.0,.0L163.7,17.6"/><path fill="#191919" stroke-width="1" stroke-linecap="round" stroke="#191919" d="M164.0,14.7L169.7,18.3L163.4,20.6L164.0,14.7"/></g><g transform="translate(454.93,265.57)" id="shape39"><path fill="none" stroke="#191919" d="M.0,.0L-0.1,12.7"/><path fill="#191919" stroke-width="1" stroke-linecap="round" stroke="#191919" d="M2.9,12.7L-0.1,18.7L-3.1,12.7L2.9,12.7"/></g><g transform="translate(454.83,322.26)" id="shape40"><path fill="none" stroke="#191919" d="M.0,.0L.1,12.7"/><path fill="#191919" stroke-width="1" stroke-linecap="round" stroke="#191919" d="M3.1,12.7L.1,18.7L-2.9,12.7L3.1,12.7"/></g><g transform="translate(454.93,378.95)" id="shape41"><path fill="none" stroke="#191919" d="M.0,.0L-0.1,12.7"/><path fill="#191919" stroke-width="1" stroke-linecap="round" stroke="#191919" d="M2.9,12.7L-0.1,18.7L-3.1,12.7L2.9,12.7"/></g><g transform="translate(454.83,435.65)" id="shape42"><path fill="none" stroke="#191919" d="M.0,.0L.0,12.7"/><path fill="#191919" stroke-width="1" stroke-linecap="round" stroke="#191919" d="M3.0,12.7L.0,18.7L-3.0,12.7L3.0,12.7"/></g><g transform="translate(426.28,511.03)" id="shape43"><path fill="#ffffff" stroke-width="1" fill-rule="nonzero" d="M7.0,.0L49.7,.0C53.6,.0,56.7,3.1,56.7,7.0L56.7,30.8C56.7,34.7,53.6,37.8,49.7,37.8L7.0,37.8C3.1,37.8,.0,34.7,.0,30.8L.0,7.0C.0,3.1,3.1,.0,7.0,.0z" stroke="#323232"/><text style="fill:#191919;font-family:Microsoft YaHei;font-size:10.00pt" xml:space="preserve"><tspan x="10.3" y="24.5">END4</tspan></text></g><g transform="translate(454.83,492.34)" id="shape44"><path fill="none" stroke="#191919" d="M.0,.0L-0.0,12.7"/><path fill="#191919" stroke-width="1" stroke-linecap="round" stroke="#191919" d="M3.0,12.7L-0.1,18.7L-3.0,12.7L3.0,12.7"/></g><g transform="translate(440.65,76.59)" id="shape45"><path fill="none" stroke="#191919" d="M.0,.0L.0,75.7L-18.1,75.7"/><path fill="#191919" stroke-width="1" stroke-linecap="round" stroke="#191919" d="M-18.1,78.7L-24.1,75.7L-18.1,72.7L-18.1,78.7"/></g></g></svg>