<svg xmlns="http://www.w3.org/2000/svg" xmlns:xlink="http://www.w3.org/1999/xlink" viewBox="0 0 371 523" xmlns:ev="http://www.w3.org/2001/xml-events" width="371" height="523"><defs/><g transform="translate(5.5,5.5)" id="page1"><rect y="0" width="361" x="0" fill="#ffffff" height="513"/><g transform="translate(199.43,38.80)" id="shape1"><path stroke-width="1" stroke="#323232" fill="#ffffff" d="M7.0,.0L49.7,.0C53.6,.0,56.7,3.1,56.7,7.0L56.7,30.8C56.7,34.7,53.6,37.8,49.7,37.8L7.0,37.8C3.1,37.8,.0,34.7,.0,30.8L.0,7.0C.0,3.1,3.1,.0,7.0,.0z" fill-rule="nonzero"/><text style="fill:#191919;font-family:Microsoft YaHei;font-size:10.00pt" xml:space="preserve"><tspan y="24.4" x="15.3">开始</tspan></text></g><g transform="translate(189.98,95.49)" id="shape2"><path stroke-width="1" stroke="#323232" fill="#ffffff" d="M7.0,.0L68.6,.0C72.5,.0,75.6,3.1,75.6,7.0L75.6,30.8C75.6,34.7,72.5,37.8,68.6,37.8L7.0,37.8C3.1,37.8,.0,34.7,.0,30.8L.0,7.0C.0,3.1,3.1,.0,7.0,.0z" fill-rule="nonzero"/><text style="fill:#191919;font-family:Microsoft YaHei;font-size:10.00pt" xml:space="preserve"><tspan y="24.5" x="17.8">中 / 外</tspan></text></g><g transform="translate(189.98,152.18)" id="shape3"><path stroke-width="1" stroke="#323232" fill="#ffffff" d="M7.0,.0L68.6,.0C72.5,.0,75.6,3.1,75.6,7.0L75.6,30.8C75.6,34.7,72.5,37.8,68.6,37.8L7.0,37.8C3.1,37.8,.0,34.7,.0,30.8L.0,7.0C.0,3.1,3.1,.0,7.0,.0z" fill-rule="nonzero"/><text style="fill:#191919;font-family:Microsoft YaHei;font-size:10.00pt" xml:space="preserve"><tspan y="24.5" x="17.8">中 / 外</tspan></text></g><g transform="translate(152.18,208.87)" id="shape4"><path stroke-width="1" stroke="#323232" fill="#ffffff" d="M7.0,.0L144.2,.0C148.0,.0,151.2,3.1,151.2,7.0L151.2,30.8C151.2,34.7,148.0,37.8,144.2,37.8L7.0,37.8C3.1,37.8,.0,34.7,.0,30.8L.0,7.0C.0,3.1,3.1,.0,7.0,.0z" fill-rule="nonzero"/><text style="fill:#191919;font-family:Microsoft YaHei;font-size:10.00pt" xml:space="preserve"><tspan y="24.5" x="16.6">自己的 / 喜欢的人的</tspan></text></g><g transform="translate(133.28,265.57)" id="shape5"><path stroke-width="1" stroke="#323232" fill="#ffffff" d="M7.0,.0L49.7,.0C53.6,.0,56.7,3.1,56.7,7.0L56.7,30.8C56.7,34.7,53.6,37.8,49.7,37.8L7.0,37.8C3.1,37.8,.0,34.7,.0,30.8L.0,7.0C.0,3.1,3.1,.0,7.0,.0z" fill-rule="nonzero"/><text style="fill:#191919;font-family:Microsoft YaHei;font-size:10.00pt" xml:space="preserve"><tspan y="24.5" x="15.3">抱住</tspan></text></g><g transform="translate(227.93,76.80)" id="shape6"><path stroke="#191919" fill="none" d="M.0,.0L.0,12.7"/><path stroke-width="1" stroke-linecap="round" stroke="#191919" fill="#191919" d="M3.0,12.7L.1,18.7L-3.0,12.7L3.0,12.7"/></g><g transform="translate(227.98,133.49)" id="shape7"><path stroke="#191919" fill="none" d="M.0,.0L.0,12.7"/><path stroke-width="1" stroke-linecap="round" stroke="#191919" fill="#191919" d="M3.0,12.7L.0,18.7L-3.0,12.7L3.0,12.7"/></g><g transform="translate(228.18,246.87)" id="shape8"><path stroke="#191919" fill="none" d="M.0,.0L-60.6,17.1"/><path stroke-width="1" stroke-linecap="round" stroke="#191919" fill="#191919" d="M-59.8,20.0L-66.4,18.7L-61.4,14.2L-59.8,20.0"/></g><g transform="translate(265.57,265.57)" id="shape9"><path stroke-width="1" stroke="#323232" fill="#ffffff" d="M7.0,.0L49.7,.0C53.6,.0,56.7,3.1,56.7,7.0L56.7,30.8C56.7,34.7,53.6,37.8,49.7,37.8L7.0,37.8C3.1,37.8,.0,34.7,.0,30.8L.0,7.0C.0,3.1,3.1,.0,7.0,.0z" fill-rule="nonzero"/><text style="fill:#191919;font-family:Microsoft YaHei;font-size:10.00pt" xml:space="preserve"><tspan y="24.5" x="15.3">推开</tspan></text></g><g transform="translate(228.18,246.87)" id="shape10"><path stroke="#191919" fill="none" d="M.0,.0L60.1,17.1"/><path stroke-width="1" stroke-linecap="round" stroke="#191919" fill="#191919" d="M60.9,14.2L65.9,18.7L59.3,19.9L60.9,14.2"/></g><g transform="translate(189.98,322.26)" id="shape11"><path stroke-width="1" stroke="#323232" fill="#ffffff" d="M7.0,.0L49.7,.0C53.6,.0,56.7,3.1,56.7,7.0L56.7,30.8C56.7,34.7,53.6,37.8,49.7,37.8L7.0,37.8C3.1,37.8,.0,34.7,.0,30.8L.0,7.0C.0,3.1,3.1,.0,7.0,.0z" fill-rule="nonzero"/><text style="fill:#191919;font-family:Microsoft YaHei;font-size:10.00pt" xml:space="preserve"><tspan y="24.5" x="15.3">回去</tspan></text></g><g transform="translate(76.59,322.26)" id="shape12"><path stroke-width="1" stroke="#323232" fill="#ffffff" d="M7.0,.0L49.7,.0C53.6,.0,56.7,3.1,56.7,7.0L56.7,30.8C56.7,34.7,53.6,37.8,49.7,37.8L7.0,37.8C3.1,37.8,.0,34.7,.0,30.8L.0,7.0C.0,3.1,3.1,.0,7.0,.0z" fill-rule="nonzero"/><text style="fill:#191919;font-family:Microsoft YaHei;font-size:10.00pt" xml:space="preserve"><tspan y="24.5" x="8.8">再待会</tspan></text></g><g transform="translate(161.78,303.57)" id="shape13"><path stroke="#191919" fill="none" d="M.0,.0L-51.0,16.8"/><path stroke-width="1" stroke-linecap="round" stroke="#191919" fill="#191919" d="M-50.1,19.7L-56.7,18.7L-51.9,14.0L-50.1,19.7"/></g><g transform="translate(160.99,303.36)" id="shape14"><path stroke="#191919" fill="none" d="M.0,.0L51.8,17.0"/><path stroke-width="1" stroke-linecap="round" stroke="#191919" fill="#191919" d="M52.7,14.2L57.5,18.9L50.8,19.9L52.7,14.2"/></g><g transform="translate(189.98,435.65)" id="shape15"><path stroke-width="1" stroke="#323232" fill="#ffffff" d="M7.0,.0L49.7,.0C53.6,.0,56.7,3.1,56.7,7.0L56.7,30.8C56.7,34.7,53.6,37.8,49.7,37.8L7.0,37.8C3.1,37.8,.0,34.7,.0,30.8L.0,7.0C.0,3.1,3.1,.0,7.0,.0z" fill-rule="nonzero"/><text style="fill:#191919;font-family:Microsoft YaHei;font-size:10.00pt" xml:space="preserve"><tspan y="24.5" x="10.3">END3</tspan></text></g><g transform="translate(218.48,360.26)" id="shape16"><path stroke="#191919" fill="none" d="M.0,.0L.0,69.4"/><path stroke-width="1" stroke-linecap="round" stroke="#191919" fill="#191919" d="M3.0,69.4L.0,75.4L-3.0,69.4L3.0,69.4"/></g><g transform="translate(114.39,378.95)" id="shape17"><path stroke-width="1" stroke="#323232" fill="#ffffff" d="M7.0,.0L49.7,.0C53.6,.0,56.7,3.1,56.7,7.0L56.7,30.8C56.7,34.7,53.6,37.8,49.7,37.8L7.0,37.8C3.1,37.8,.0,34.7,.0,30.8L.0,7.0C.0,3.1,3.1,.0,7.0,.0z" fill-rule="nonzero"/><text style="fill:#191919;font-family:Microsoft YaHei;font-size:10.00pt" xml:space="preserve"><tspan y="24.5" x="15.3">没有</tspan></text></g><g transform="translate(38.80,378.95)" id="shape18"><path stroke-width="1" stroke="#323232" fill="#ffffff" d="M7.0,.0L49.7,.0C53.6,.0,56.7,3.1,56.7,7.0L56.7,30.8C56.7,34.7,53.6,37.8,49.7,37.8L7.0,37.8C3.1,37.8,.0,34.7,.0,30.8L.0,7.0C.0,3.1,3.1,.0,7.0,.0z" fill-rule="nonzero"/><text style="fill:#191919;font-family:Microsoft YaHei;font-size:10.00pt" xml:space="preserve"><tspan y="24.4" x="21.8">有</tspan></text></g><g transform="translate(105.09,360.26)" id="shape19"><path stroke="#191919" fill="none" d="M.0,.0L32.4,16.0"/><path stroke-width="1" stroke-linecap="round" stroke="#191919" fill="#191919" d="M33.7,13.3L37.8,18.7L31.1,18.7L33.7,13.3"/></g><g transform="translate(105.09,360.26)" id="shape20"><path stroke="#191919" fill="none" d="M.0,.0L-32.4,16.0"/><path stroke-width="1" stroke-linecap="round" stroke="#191919" fill="#191919" d="M-31.1,18.7L-37.8,18.7L-33.7,13.3L-31.1,18.7"/></g><g transform="translate(114.39,435.65)" id="shape21"><path stroke-width="1" stroke="#323232" fill="#ffffff" d="M7.0,.0L49.7,.0C53.6,.0,56.7,3.1,56.7,7.0L56.7,30.8C56.7,34.7,53.6,37.8,49.7,37.8L7.0,37.8C3.1,37.8,.0,34.7,.0,30.8L.0,7.0C.0,3.1,3.1,.0,7.0,.0z" fill-rule="nonzero"/><text style="fill:#191919;font-family:Microsoft YaHei;font-size:10.00pt" xml:space="preserve"><tspan y="24.5" x="10.3">END2</tspan></text></g><g transform="translate(38.80,435.65)" id="shape22"><path stroke-width="1" stroke="#323232" fill="#ffffff" d="M7.0,.0L49.7,.0C53.6,.0,56.7,3.1,56.7,7.0L56.7,30.8C56.7,34.7,53.6,37.8,49.7,37.8L7.0,37.8C3.1,37.8,.0,34.7,.0,30.8L.0,7.0C.0,3.1,3.1,.0,7.0,.0z" fill-rule="nonzero"/><text style="fill:#191919;font-family:Microsoft YaHei;font-size:10.00pt" xml:space="preserve"><tspan y="24.5" x="10.3">END1</tspan></text></g><g transform="translate(142.89,416.95)" id="shape23"><path stroke="#191919" fill="none" d="M.0,.0L.0,12.7"/><path stroke-width="1" stroke-linecap="round" stroke="#191919" fill="#191919" d="M3.0,12.7L.0,18.7L-3.0,12.7L3.0,12.7"/></g><g transform="translate(67.30,416.95)" id="shape24"><path stroke="#191919" fill="none" d="M.0,.0L-0.0,12.7"/><path stroke-width="1" stroke-linecap="round" stroke="#191919" fill="#191919" d="M3.0,12.7L-0.0,18.7L-3.0,12.7L3.0,12.7"/></g><g transform="translate(265.57,435.65)" id="shape25"><path stroke-width="1" stroke="#323232" fill="#ffffff" d="M7.0,.0L49.7,.0C53.6,.0,56.7,3.1,56.7,7.0L56.7,30.8C56.7,34.7,53.6,37.8,49.7,37.8L7.0,37.8C3.1,37.8,.0,34.7,.0,30.8L.0,7.0C.0,3.1,3.1,.0,7.0,.0z" fill-rule="nonzero"/><text style="fill:#191919;font-family:Microsoft YaHei;font-size:10.00pt" xml:space="preserve"><tspan y="24.5" x="10.3">END4</tspan></text></g><g transform="translate(294.07,303.57)" id="shape26"><path stroke="#191919" fill="none" d="M.0,.0L.0,126.1"/><path stroke-width="1" stroke-linecap="round" stroke="#191919" fill="#191919" d="M3.0,126.1L.0,132.1L-3.0,126.1L3.0,126.1"/></g><g transform="translate(227.98,190.18)" id="shape27"><path stroke="#191919" fill="none" d="M.0,.0L.1,12.7"/><path stroke-width="1" stroke-linecap="round" stroke="#191919" fill="#191919" d="M3.1,12.7L.2,18.7L-2.9,12.7L3.1,12.7"/></g></g></svg>