<svg width="428" xmlns="http://www.w3.org/2000/svg" xmlns:xlink="http://www.w3.org/1999/xlink" height="693" viewBox="0 0 428 693" xmlns:ev="http://www.w3.org/2001/xml-events"><defs/><g transform="translate(5.5,5.5)" id="page1"><rect fill="#ffffff" width="418" x="0" height="683" y="0"/><g transform="translate(67.45,189.98)" id="shape1"><path fill="none" stroke="#191919" d="M.0,.0L-0.0,126.3"/><path fill="#191919" stroke-width="1" stroke-linecap="round" stroke="#191919" d="M3.0,126.3L-0.0,132.3L-3.0,126.3L3.0,126.3"/></g><g transform="translate(181.76,38.80)" id="shape2"><path fill="#ffffff" stroke-width="1" fill-rule="nonzero" d="M7.0,.0L49.0,.0C52.8,.0,56.0,3.1,56.0,7.0L56.0,30.8C56.0,34.7,52.8,37.8,49.0,37.8L7.0,37.8C3.1,37.8,.0,34.7,.0,30.8L.0,7.0C.0,3.1,3.1,.0,7.0,.0z" stroke="#323232"/><text style="fill:#191919;font-family:Microsoft YaHei;font-size:10.00pt" xml:space="preserve"><tspan x="15.0" y="24.4">开始</tspan></text></g><g transform="translate(38.95,95.49)" id="shape3"><path fill="#ffffff" stroke-width="1" fill-rule="nonzero" d="M7.0,.0L68.6,.0C72.5,.0,75.6,3.1,75.6,7.0L75.6,30.8C75.6,34.7,72.5,37.8,68.6,37.8L7.0,37.8C3.1,37.8,.0,34.7,.0,30.8L.0,7.0C.0,3.1,3.1,.0,7.0,.0z" stroke="#323232"/><text style="fill:#191919;font-family:Microsoft YaHei;font-size:10.00pt" xml:space="preserve"><tspan x="24.8" y="24.4">回应</tspan></text></g><g transform="translate(209.90,76.80)" id="shape4"><path fill="none" stroke="#191919" d="M.0,.0L-127.0,17.9"/><path fill="#191919" stroke-width="1" stroke-linecap="round" stroke="#191919" d="M-126.6,20.8L-132.9,18.7L-127.4,14.9L-126.6,20.8"/></g><g transform="translate(171.95,95.49)" id="shape5"><path fill="#ffffff" stroke-width="1" fill-rule="nonzero" d="M7.0,.0L68.6,.0C72.5,.0,75.6,3.1,75.6,7.0L75.6,30.8C75.6,34.7,72.5,37.8,68.6,37.8L7.0,37.8C3.1,37.8,.0,34.7,.0,30.8L.0,7.0C.0,3.1,3.1,.0,7.0,.0z" stroke="#323232"/><text style="fill:#191919;font-family:Microsoft YaHei;font-size:10.00pt" xml:space="preserve"><tspan x="24.8" y="24.4">拒绝</tspan></text></g><g transform="translate(38.95,152.18)" id="shape6"><path fill="#ffffff" stroke-width="1" fill-rule="nonzero" d="M7.0,.0L333.2,.0C337.0,.0,340.2,3.1,340.2,7.0L340.2,30.8C340.2,34.7,337.0,37.8,333.2,37.8L7.0,37.8C3.1,37.8,.0,34.7,.0,30.8L.0,7.0C.0,3.1,3.1,.0,7.0,.0z" stroke="#323232"/><text style="fill:#191919;font-family:Microsoft YaHei;font-size:10.00pt" xml:space="preserve"><tspan x="130.6" y="24.4">冷笑话 / 谜语</tspan></text></g><g transform="translate(38.95,322.26)" id="shape7"><path fill="#ffffff" stroke-width="1" fill-rule="nonzero" d="M7.0,.0L49.7,.0C53.6,.0,56.7,3.1,56.7,7.0L56.7,30.8C56.7,34.7,53.6,37.8,49.7,37.8L7.0,37.8C3.1,37.8,.0,34.7,.0,30.8L.0,7.0C.0,3.1,3.1,.0,7.0,.0z" stroke="#323232"/><text style="fill:#191919;font-family:Microsoft YaHei;font-size:10.00pt" xml:space="preserve"><tspan x="10.3" y="24.4">END1</tspan></text></g><g transform="translate(133.44,208.87)" id="shape8"><path fill="#ffffff" stroke-width="1" fill-rule="nonzero" d="M7.0,.0L49.7,.0C53.6,.0,56.7,3.1,56.7,7.0L56.7,30.8C56.7,34.7,53.6,37.8,49.7,37.8L7.0,37.8C3.1,37.8,.0,34.7,.0,30.8L.0,7.0C.0,3.1,3.1,.0,7.0,.0z" stroke="#323232"/><text style="fill:#191919;font-family:Microsoft YaHei;font-size:10.00pt" xml:space="preserve"><tspan x="15.3" y="24.5">委身</tspan></text></g><g transform="translate(246.83,208.87)" id="shape9"><path fill="#ffffff" stroke-width="1" fill-rule="nonzero" d="M7.0,.0L49.7,.0C53.6,.0,56.7,3.1,56.7,7.0L56.7,30.8C56.7,34.7,53.6,37.8,49.7,37.8L7.0,37.8C3.1,37.8,.0,34.7,.0,30.8L.0,7.0C.0,3.1,3.1,.0,7.0,.0z" stroke="#323232"/><text style="fill:#191919;font-family:Microsoft YaHei;font-size:10.00pt" xml:space="preserve"><tspan x="15.3" y="24.5">拒绝</tspan></text></g><g transform="translate(209.95,190.18)" id="shape10"><path fill="none" stroke="#191919" d="M.0,.0L-42.4,16.5"/><path fill="#191919" stroke-width="1" stroke-linecap="round" stroke="#191919" d="M-41.3,19.3L-48.0,18.7L-43.5,13.7L-41.3,19.3"/></g><g transform="translate(210.34,189.98)" id="shape11"><path fill="none" stroke="#191919" d="M.0,.0L59.2,17.2"/><path fill="#191919" stroke-width="1" stroke-linecap="round" stroke="#191919" d="M60.1,14.3L65.0,18.9L58.4,20.1L60.1,14.3"/></g><g transform="translate(133.44,265.57)" id="shape12"><path fill="#ffffff" stroke-width="1" fill-rule="nonzero" d="M7.0,.0L49.7,.0C53.6,.0,56.7,3.1,56.7,7.0L56.7,30.8C56.7,34.7,53.6,37.8,49.7,37.8L7.0,37.8C3.1,37.8,.0,34.7,.0,30.8L.0,7.0C.0,3.1,3.1,.0,7.0,.0z" stroke="#323232"/><text style="fill:#191919;font-family:Microsoft YaHei;font-size:10.00pt" xml:space="preserve"><tspan x="15.3" y="24.5">彦一</tspan></text></g><g transform="translate(161.94,246.87)" id="shape13"><path fill="none" stroke="#191919" d="M.0,.0L.0,12.7"/><path fill="#191919" stroke-width="1" stroke-linecap="round" stroke="#191919" d="M3.0,12.7L.0,18.7L-3.0,12.7L3.0,12.7"/></g><g transform="translate(133.44,322.26)" id="shape14"><path fill="#ffffff" stroke-width="1" fill-rule="nonzero" d="M7.0,.0L49.7,.0C53.6,.0,56.7,3.1,56.7,7.0L56.7,30.8C56.7,34.7,53.6,37.8,49.7,37.8L7.0,37.8C3.1,37.8,.0,34.7,.0,30.8L.0,7.0C.0,3.1,3.1,.0,7.0,.0z" stroke="#323232"/><text style="fill:#191919;font-family:Microsoft YaHei;font-size:10.00pt" xml:space="preserve"><tspan x="10.3" y="24.5">END2</tspan></text></g><g transform="translate(161.94,303.57)" id="shape15"><path fill="none" stroke="#191919" d="M.0,.0L.0,12.7"/><path fill="#191919" stroke-width="1" stroke-linecap="round" stroke="#191919" d="M3.0,12.7L.0,18.7L-3.0,12.7L3.0,12.7"/></g><g transform="translate(209.03,265.57)" id="shape16"><path fill="#ffffff" stroke-width="1" fill-rule="nonzero" d="M7.0,.0L49.7,.0C53.6,.0,56.7,3.1,56.7,7.0L56.7,30.8C56.7,34.7,53.6,37.8,49.7,37.8L7.0,37.8C3.1,37.8,.0,34.7,.0,30.8L.0,7.0C.0,3.1,3.1,.0,7.0,.0z" stroke="#323232"/><text style="fill:#191919;font-family:Microsoft YaHei;font-size:10.00pt" xml:space="preserve"><tspan x="15.3" y="24.5">彦一</tspan></text></g><g transform="translate(237.53,303.57)" id="shape17"><path fill="none" stroke="#191919" d="M.0,.0L-69.8,17.3"/><path fill="#191919" stroke-width="1" stroke-linecap="round" stroke="#191919" d="M-69.0,20.2L-75.6,18.7L-70.5,14.3L-69.0,20.2"/></g><g transform="translate(275.33,246.87)" id="shape18"><path fill="none" stroke="#191919" d="M.0,.0L-32.4,16.0"/><path fill="#191919" stroke-width="1" stroke-linecap="round" stroke="#191919" d="M-31.1,18.7L-37.8,18.7L-33.7,13.3L-31.1,18.7"/></g><g transform="translate(284.62,265.57)" id="shape19"><path fill="#ffffff" stroke-width="1" fill-rule="nonzero" d="M7.0,.0L49.7,.0C53.6,.0,56.7,3.1,56.7,7.0L56.7,30.8C56.7,34.7,53.6,37.8,49.7,37.8L7.0,37.8C3.1,37.8,.0,34.7,.0,30.8L.0,7.0C.0,3.1,3.1,.0,7.0,.0z" stroke="#323232"/><text style="fill:#191919;font-family:Microsoft YaHei;font-size:10.00pt" xml:space="preserve"><tspan x="15.3" y="24.5">夏彦</tspan></text></g><g transform="translate(275.33,246.87)" id="shape20"><path fill="none" stroke="#191919" d="M.0,.0L32.4,16.0"/><path fill="#191919" stroke-width="1" stroke-linecap="round" stroke="#191919" d="M33.7,13.3L37.8,18.7L31.1,18.7L33.7,13.3"/></g><g transform="translate(209.90,76.80)" id="shape21"><path fill="none" stroke="#191919" d="M.0,.0L.0,12.7"/><path fill="#191919" stroke-width="1" stroke-linecap="round" stroke="#191919" d="M3.0,12.7L.1,18.7L-3.0,12.7L3.0,12.7"/></g><g transform="translate(209.95,133.49)" id="shape22"><path fill="none" stroke="#191919" d="M.0,.0L-0.0,12.7"/><path fill="#191919" stroke-width="1" stroke-linecap="round" stroke="#191919" d="M3.0,12.7L-0.0,18.7L-3.0,12.7L3.0,12.7"/></g><g transform="translate(246.83,322.26)" id="shape23"><path fill="#ffffff" stroke-width="1" fill-rule="nonzero" d="M7.0,.0L125.3,.0C129.1,.0,132.3,3.1,132.3,7.0L132.3,30.8C132.3,34.7,129.1,37.8,125.3,37.8L7.0,37.8C3.1,37.8,.0,34.7,.0,30.8L.0,7.0C.0,3.1,3.1,.0,7.0,.0z" stroke="#323232"/><text style="fill:#191919;font-family:Microsoft YaHei;font-size:10.00pt" xml:space="preserve"><tspan x="13.1" y="24.4">吃饭 / 洗澡 / 莲华</tspan></text></g><g transform="translate(313.12,303.57)" id="shape24"><path fill="none" stroke="#191919" d="M.0,.0L.1,12.7"/><path fill="#191919" stroke-width="1" stroke-linecap="round" stroke="#191919" d="M3.1,12.7L.2,18.7L-2.9,12.7L3.1,12.7"/></g><g transform="translate(246.83,378.95)" id="shape25"><path fill="#ffffff" stroke-width="1" fill-rule="nonzero" d="M7.0,.0L49.7,.0C53.6,.0,56.7,3.1,56.7,7.0L56.7,30.8C56.7,34.7,53.6,37.8,49.7,37.8L7.0,37.8C3.1,37.8,.0,34.7,.0,30.8L.0,7.0C.0,3.1,3.1,.0,7.0,.0z" stroke="#323232"/><text style="fill:#191919;font-family:Microsoft YaHei;font-size:10.00pt" xml:space="preserve"><tspan x="15.3" y="24.4">回去</tspan></text></g><g transform="translate(322.42,378.95)" id="shape26"><path fill="#ffffff" stroke-width="1" fill-rule="nonzero" d="M7.0,.0L49.7,.0C53.6,.0,56.7,3.1,56.7,7.0L56.7,30.8C56.7,34.7,53.6,37.8,49.7,37.8L7.0,37.8C3.1,37.8,.0,34.7,.0,30.8L.0,7.0C.0,3.1,3.1,.0,7.0,.0z" stroke="#323232"/><text style="fill:#191919;font-family:Microsoft YaHei;font-size:10.00pt" xml:space="preserve"><tspan x="15.3" y="24.4">不回</tspan></text></g><g transform="translate(313.33,360.26)" id="shape27"><path fill="none" stroke="#191919" d="M.0,.0L-32.6,16.0"/><path fill="#191919" stroke-width="1" stroke-linecap="round" stroke="#191919" d="M-31.3,18.7L-38.0,18.7L-33.9,13.4L-31.3,18.7"/></g><g transform="translate(313.33,360.26)" id="shape28"><path fill="none" stroke="#191919" d="M.0,.0L32.2,16.0"/><path fill="#191919" stroke-width="1" stroke-linecap="round" stroke="#191919" d="M33.6,13.3L37.6,18.7L30.9,18.7L33.6,13.3"/></g><g transform="translate(133.44,454.54)" id="shape29"><path fill="#ffffff" stroke-width="1" fill-rule="nonzero" d="M7.0,.0L49.7,.0C53.6,.0,56.7,3.1,56.7,7.0L56.7,30.8C56.7,34.7,53.6,37.8,49.7,37.8L7.0,37.8C3.1,37.8,.0,34.7,.0,30.8L.0,7.0C.0,3.1,3.1,.0,7.0,.0z" stroke="#323232"/><text style="fill:#191919;font-family:Microsoft YaHei;font-size:10.00pt" xml:space="preserve"><tspan x="10.3" y="24.5">END3</tspan></text></g><g transform="translate(246.83,435.65)" id="shape30"><path fill="#ffffff" stroke-width="1" fill-rule="nonzero" d="M7.0,.0L49.7,.0C53.6,.0,56.7,3.1,56.7,7.0L56.7,30.8C56.7,34.7,53.6,37.8,49.7,37.8L7.0,37.8C3.1,37.8,.0,34.7,.0,30.8L.0,7.0C.0,3.1,3.1,.0,7.0,.0z" stroke="#323232"/><text style="fill:#191919;font-family:Microsoft YaHei;font-size:10.00pt" xml:space="preserve"><tspan x="15.3" y="24.4">回去</tspan></text></g><g transform="translate(322.42,435.65)" id="shape31"><path fill="#ffffff" stroke-width="1" fill-rule="nonzero" d="M7.0,.0L49.7,.0C53.6,.0,56.7,3.1,56.7,7.0L56.7,30.8C56.7,34.7,53.6,37.8,49.7,37.8L7.0,37.8C3.1,37.8,.0,34.7,.0,30.8L.0,7.0C.0,3.1,3.1,.0,7.0,.0z" stroke="#323232"/><text style="fill:#191919;font-family:Microsoft YaHei;font-size:10.00pt" xml:space="preserve"><tspan x="15.3" y="24.4">不回</tspan></text></g><g transform="translate(246.83,397.95)" id="shape32"><path fill="none" stroke="#191919" d="M.0,.0L-53.2,70.8"/><path fill="#191919" stroke-width="1" stroke-linecap="round" stroke="#191919" d="M-50.8,72.6L-56.8,75.6L-55.6,69.0L-50.8,72.6"/></g><g transform="translate(246.83,454.65)" id="shape33"><path fill="none" stroke="#191919" d="M.0,.0L-51.1,17.0"/><path fill="#191919" stroke-width="1" stroke-linecap="round" stroke="#191919" d="M-50.1,19.8L-56.8,18.9L-52.0,14.2L-50.1,19.8"/></g><g transform="translate(350.92,416.95)" id="shape34"><path fill="none" stroke="#191919" d="M.0,.0L-69.8,17.3"/><path fill="#191919" stroke-width="1" stroke-linecap="round" stroke="#191919" d="M-69.0,20.2L-75.6,18.7L-70.5,14.3L-69.0,20.2"/></g><g transform="translate(350.92,416.95)" id="shape35"><path fill="none" stroke="#191919" d="M.0,.0L.0,12.7"/><path fill="#191919" stroke-width="1" stroke-linecap="round" stroke="#191919" d="M3.0,12.7L.0,18.7L-3.0,12.7L3.0,12.7"/></g><g transform="translate(275.17,492.34)" id="shape36"><path fill="#ffffff" stroke-width="1" fill-rule="nonzero" d="M7.0,.0L68.6,.0C72.5,.0,75.6,3.1,75.6,7.0L75.6,30.8C75.6,34.7,72.5,37.8,68.6,37.8L7.0,37.8C3.1,37.8,.0,34.7,.0,30.8L.0,7.0C.0,3.1,3.1,.0,7.0,.0z" stroke="#323232"/><text style="fill:#191919;font-family:Microsoft YaHei;font-size:10.00pt" xml:space="preserve"><tspan x="17.8" y="24.5">中 / 外</tspan></text></g><g transform="translate(350.92,473.65)" id="shape37"><path fill="none" stroke="#191919" d="M.0,.0L-32.4,16.0"/><path fill="#191919" stroke-width="1" stroke-linecap="round" stroke="#191919" d="M-31.0,18.7L-37.7,18.7L-33.7,13.3L-31.0,18.7"/></g><g transform="translate(246.83,549.03)" id="shape38"><path fill="#ffffff" stroke-width="1" fill-rule="nonzero" d="M7.0,.0L49.7,.0C53.6,.0,56.7,3.1,56.7,7.0L56.7,30.8C56.7,34.7,53.6,37.8,49.7,37.8L7.0,37.8C3.1,37.8,.0,34.7,.0,30.8L.0,7.0C.0,3.1,3.1,.0,7.0,.0z" stroke="#323232"/><text style="fill:#191919;font-family:Microsoft YaHei;font-size:10.00pt" xml:space="preserve"><tspan x="15.3" y="24.4">回去</tspan></text></g><g transform="translate(322.42,549.03)" id="shape39"><path fill="#ffffff" stroke-width="1" fill-rule="nonzero" d="M7.0,.0L49.7,.0C53.6,.0,56.7,3.1,56.7,7.0L56.7,30.8C56.7,34.7,53.6,37.8,49.7,37.8L7.0,37.8C3.1,37.8,.0,34.7,.0,30.8L.0,7.0C.0,3.1,3.1,.0,7.0,.0z" stroke="#323232"/><text style="fill:#191919;font-family:Microsoft YaHei;font-size:10.00pt" xml:space="preserve"><tspan x="15.3" y="24.4">不回</tspan></text></g><g transform="translate(313.17,530.34)" id="shape40"><path fill="none" stroke="#191919" d="M.0,.0L-32.5,16.0"/><path fill="#191919" stroke-width="1" stroke-linecap="round" stroke="#191919" d="M-31.1,18.7L-37.8,18.7L-33.8,13.3L-31.1,18.7"/></g><g transform="translate(313.17,530.34)" id="shape41"><path fill="none" stroke="#191919" d="M.0,.0L32.4,16.0"/><path fill="#191919" stroke-width="1" stroke-linecap="round" stroke="#191919" d="M33.7,13.3L37.7,18.7L31.0,18.7L33.7,13.3"/></g><g transform="translate(246.83,568.03)" id="shape42"><path fill="none" stroke="#191919" d="M.0,.0L-53.7,-89.3"/><path fill="#191919" stroke-width="1" stroke-linecap="round" stroke="#191919" d="M-56.2,-87.8L-56.8,-94.5L-51.1,-90.9L-56.2,-87.8"/></g><g transform="translate(322.42,605.72)" id="shape43"><path fill="#ffffff" stroke-width="3" fill-rule="nonzero" d="M7.0,.0L49.7,.0C53.6,.0,56.7,3.1,56.7,7.0L56.7,30.8C56.7,34.7,53.6,37.8,49.7,37.8L7.0,37.8C3.1,37.8,.0,34.7,.0,30.8L.0,7.0C.0,3.1,3.1,.0,7.0,.0z" stroke="#7a66bd"/><text style="fill:#e54648;font-family:Source Han Sans Normal;font-size:10.00pt;font-weight:bold" xml:space="preserve"><tspan x="21.8" y="24.5">♡</tspan></text></g><g transform="translate(350.92,587.03)" id="shape44"><path fill="none" stroke="#191919" d="M.0,.0L-0.0,12.7"/><path fill="#191919" stroke-width="1" stroke-linecap="round" stroke="#191919" d="M3.0,12.7L-0.0,18.7L-3.0,12.7L3.0,12.7"/></g><g transform="translate(76.95,133.49)" id="shape45"><path fill="none" stroke="#191919" d="M.0,.0L.0,10.7L-0.0,10.7L-0.0,12.7"/><path fill="#191919" stroke-width="1" stroke-linecap="round" stroke="#191919" d="M3.0,12.7L-0.0,18.7L-3.0,12.7L3.0,12.7"/></g></g></svg>