<svg height="636" width="277" xmlns:ev="http://www.w3.org/2001/xml-events" viewBox="0 0 277 636" xmlns="http://www.w3.org/2000/svg" xmlns:xlink="http://www.w3.org/1999/xlink"><defs/><g transform="translate(5.5,5.5)" id="page1"><rect height="626" width="267" y="0" fill="#ffffff" x="0"/><g transform="translate(104.94,38.80)" id="shape1"><path fill="#ffffff" fill-rule="nonzero" stroke-width="1" stroke="#323232" d="M7.0,.0L49.7,.0C53.6,.0,56.7,3.1,56.7,7.0L56.7,30.8C56.7,34.7,53.6,37.8,49.7,37.8L7.0,37.8C3.1,37.8,.0,34.7,.0,30.8L.0,7.0C.0,3.1,3.1,.0,7.0,.0z"/><text xml:space="preserve" style="fill:#191919;font-family:Microsoft YaHei;font-size:10.00pt"><tspan y="24.4" x="15.3">开始</tspan></text></g><g transform="translate(57.69,95.49)" id="shape2"><path fill="#ffffff" fill-rule="nonzero" stroke-width="1" stroke="#323232" d="M7.0,.0L144.2,.0C148.0,.0,151.2,3.1,151.2,7.0L151.2,30.8C151.2,34.7,148.0,37.8,144.2,37.8L7.0,37.8C3.1,37.8,.0,34.7,.0,30.8L.0,7.0C.0,3.1,3.1,.0,7.0,.0z"/><text xml:space="preserve" style="fill:#191919;font-family:Microsoft YaHei;font-size:10.00pt"><tspan y="24.4" x="23.1">保护学生 / 喝我的</tspan></text></g><g transform="translate(38.80,152.18)" id="shape3"><path fill="#ffffff" fill-rule="nonzero" stroke-width="1" stroke="#323232" d="M7.0,.0L182.0,.0C185.8,.0,189.0,3.1,189.0,7.0L189.0,30.8C189.0,34.7,185.8,37.8,182.0,37.8L7.0,37.8C3.1,37.8,.0,34.7,.0,30.8L.0,7.0C.0,3.1,3.1,.0,7.0,.0z"/><text xml:space="preserve" style="fill:#191919;font-family:Microsoft YaHei;font-size:10.00pt"><tspan y="24.4" x="16.0">就算这样我也 / 不会再靠近</tspan></text></g><g transform="translate(95.49,208.88)" id="shape4"><path fill="#ffffff" fill-rule="nonzero" stroke-width="1" stroke="#323232" d="M7.0,.0L68.6,.0C72.5,.0,75.6,3.1,75.6,7.0L75.6,30.8C75.6,34.7,72.5,37.8,68.6,37.8L7.0,37.8C3.1,37.8,.0,34.7,.0,30.8L.0,7.0C.0,3.1,3.1,.0,7.0,.0z"/><text xml:space="preserve" style="fill:#191919;font-family:Microsoft YaHei;font-size:10.00pt"><tspan y="24.5" x="17.8">中 / 外</tspan></text></g><g transform="translate(76.59,265.57)" id="shape5"><path fill="#ffffff" fill-rule="nonzero" stroke-width="1" stroke="#323232" d="M7.0,.0L106.4,.0C110.3,.0,113.4,3.1,113.4,7.0L113.4,30.8C113.4,34.7,110.3,37.8,106.4,37.8L7.0,37.8C3.1,37.8,.0,34.7,.0,30.8L.0,7.0C.0,3.1,3.1,.0,7.0,.0z"/><text xml:space="preserve" style="fill:#191919;font-family:Microsoft YaHei;font-size:10.00pt"><tspan y="24.4" x="23.7">发怒 / 原谅</tspan></text></g><g transform="translate(76.59,322.26)" id="shape6"><path fill="#ffffff" fill-rule="nonzero" stroke-width="1" stroke="#323232" d="M7.0,.0L106.4,.0C110.3,.0,113.4,3.1,113.4,7.0L113.4,30.8C113.4,34.7,110.3,37.8,106.4,37.8L7.0,37.8C3.1,37.8,.0,34.7,.0,30.8L.0,7.0C.0,3.1,3.1,.0,7.0,.0z"/><text xml:space="preserve" style="fill:#191919;font-family:Microsoft YaHei;font-size:10.00pt"><tspan y="24.4" x="23.7">抱住 / 捉弄</tspan></text></g><g transform="translate(76.59,378.95)" id="shape7"><path fill="#ffffff" fill-rule="nonzero" stroke-width="1" stroke="#323232" d="M7.0,.0L106.4,.0C110.3,.0,113.4,3.1,113.4,7.0L113.4,30.8C113.4,34.7,110.3,37.8,106.4,37.8L7.0,37.8C3.1,37.8,.0,34.7,.0,30.8L.0,7.0C.0,3.1,3.1,.0,7.0,.0z"/><text xml:space="preserve" style="fill:#191919;font-family:Microsoft YaHei;font-size:10.00pt"><tspan y="24.5" x="23.7">原谅 / 报复</tspan></text></g><g transform="translate(95.49,435.65)" id="shape8"><path fill="#ffffff" fill-rule="nonzero" stroke-width="1" stroke="#323232" d="M7.0,.0L68.6,.0C72.5,.0,75.6,3.1,75.6,7.0L75.6,30.8C75.6,34.7,72.5,37.8,68.6,37.8L7.0,37.8C3.1,37.8,.0,34.7,.0,30.8L.0,7.0C.0,3.1,3.1,.0,7.0,.0z"/><text xml:space="preserve" style="fill:#191919;font-family:Microsoft YaHei;font-size:10.00pt"><tspan y="24.5" x="17.8">中 / 外</tspan></text></g><g transform="translate(76.59,492.34)" id="shape9"><path fill="#ffffff" fill-rule="nonzero" stroke-width="1" stroke="#323232" d="M7.0,.0L106.4,.0C110.3,.0,113.4,3.1,113.4,7.0L113.4,30.8C113.4,34.7,110.3,37.8,106.4,37.8L7.0,37.8C3.1,37.8,.0,34.7,.0,30.8L.0,7.0C.0,3.1,3.1,.0,7.0,.0z"/><text xml:space="preserve" style="fill:#191919;font-family:Microsoft YaHei;font-size:10.00pt"><tspan y="24.5" x="23.7">欢快 / 庄严</tspan></text></g><g transform="translate(133.44,76.80)" id="shape10"><path fill="none" stroke="#191919" d="M.0,.0L.2,12.7"/><path fill="#191919" stroke-linecap="round" stroke-width="1" stroke="#191919" d="M3.2,12.7L.3,18.7L-2.8,12.7L3.2,12.7"/></g><g transform="translate(133.69,133.49)" id="shape11"><path fill="none" stroke="#191919" d="M.0,.0L.1,12.7"/><path fill="#191919" stroke-linecap="round" stroke-width="1" stroke="#191919" d="M3.1,12.7L.1,18.7L-2.9,12.7L3.1,12.7"/></g><g transform="translate(133.80,190.18)" id="shape12"><path fill="none" stroke="#191919" d="M.0,.0L-0.2,12.7"/><path fill="#191919" stroke-linecap="round" stroke-width="1" stroke="#191919" d="M2.8,12.7L-0.3,18.7L-3.2,12.6L2.8,12.7"/></g><g transform="translate(133.49,246.88)" id="shape13"><path fill="none" stroke="#191919" d="M.0,.0L.1,12.7"/><path fill="#191919" stroke-linecap="round" stroke-width="1" stroke="#191919" d="M3.1,12.7L.1,18.7L-2.9,12.7L3.1,12.7"/></g><g transform="translate(133.59,303.57)" id="shape14"><path fill="none" stroke="#191919" d="M.0,.0L.0,12.7"/><path fill="#191919" stroke-linecap="round" stroke-width="1" stroke="#191919" d="M3.0,12.7L.0,18.7L-3.0,12.7L3.0,12.7"/></g><g transform="translate(133.59,360.26)" id="shape15"><path fill="none" stroke="#191919" d="M.0,.0L.0,12.7"/><path fill="#191919" stroke-linecap="round" stroke-width="1" stroke="#191919" d="M3.0,12.7L.0,18.7L-3.0,12.7L3.0,12.7"/></g><g transform="translate(133.59,416.95)" id="shape16"><path fill="none" stroke="#191919" d="M.0,.0L-0.1,12.7"/><path fill="#191919" stroke-linecap="round" stroke-width="1" stroke="#191919" d="M2.9,12.7L-0.1,18.7L-3.1,12.7L2.9,12.7"/></g><g transform="translate(133.49,473.65)" id="shape17"><path fill="none" stroke="#191919" d="M.0,.0L.1,12.7"/><path fill="#191919" stroke-linecap="round" stroke-width="1" stroke="#191919" d="M3.1,12.7L.1,18.7L-2.9,12.7L3.1,12.7"/></g><g transform="translate(104.94,549.03)" id="shape18"><path fill="#ffffff" fill-rule="nonzero" stroke-width="1" stroke="#323232" d="M7.0,.0L49.7,.0C53.6,.0,56.7,3.1,56.7,7.0L56.7,30.8C56.7,34.7,53.6,37.8,49.7,37.8L7.0,37.8C3.1,37.8,.0,34.7,.0,30.8L.0,7.0C.0,3.1,3.1,.0,7.0,.0z"/><text xml:space="preserve" style="fill:#191919;font-family:Microsoft YaHei;font-size:10.00pt"><tspan y="24.4" x="14.3">END</tspan></text></g><g transform="translate(133.59,530.34)" id="shape19"><path fill="none" stroke="#191919" d="M.0,.0L.0,10.7L-0.2,10.7L-0.2,12.7"/><path fill="#191919" stroke-linecap="round" stroke-width="1" stroke="#191919" d="M2.8,12.7L-0.2,18.7L-3.2,12.7L2.8,12.7"/></g></g></svg>